<?xml version="1.0" encoding="utf-8"?>
<!-- Generator: Adobe Illustrator 22.1.0, SVG Export Plug-In . SVG Version: 6.00 Build 0)  -->
<svg version="1.1" id="Layer_2" xmlns="http://www.w3.org/2000/svg" xmlns:xlink="http://www.w3.org/1999/xlink" x="0px" y="0px"
	 viewBox="0 0 317 61" style="enable-background:new 0 0 317 61;" xml:space="preserve">
<style type="text/css">
	.st0{fill:#243588;}
	.st1{fill:#E42313;}
	.st2{fill:#FFFFFF;}
	.st3{fill:url(#SVGID_1_);}
	.st4{fill:url(#SVGID_2_);}
	.st5{fill:url(#SVGID_3_);}
	.st6{fill:url(#SVGID_4_);}
	.st7{fill:url(#SVGID_5_);}
	.st8{fill:url(#SVGID_6_);}
	.st9{fill:url(#SVGID_7_);}
	.st10{fill:url(#SVGID_8_);}
</style>
<g>
	<path class="st0" d="M78.2,38c2.9,2,6.9,3.8,10.9,3.8c3.3,0,6.9-1.1,6.9-4.7c0-3.4-3.4-4.7-7.4-6c-5.2-1.7-10.4-3.9-10.4-9.8
		c0-4.8,4-8.5,10.5-8.5c3,0,6.8,1.2,9.3,2.3v4.5c-2.3-1.2-5.6-2.7-9.3-2.7c-3.3,0-6.1,1.3-6.1,4.3c0.1,3,3.5,4.2,7.2,5.4
		c5.1,1.7,10.5,4.3,10.6,10.3c0.1,5.3-4.2,8.8-11.3,8.8c-3.3,0-7.9-1.4-10.9-3.1V38z"/>
	<path class="st0" d="M111.7,27.9V37c0,3.4,0.7,5,4.8,5c1.2,0,3.6-0.4,5.2-1v3.8c-2,0.6-4.3,1.1-5.8,1.1c-7.4,0-8.6-3.5-8.6-8.9
		v-9.1h-4.8V24h4.8v-6l4.3-1.4V24h10v3.9H111.7z"/>
	<path class="st0" d="M147.7,23.9v16.8c0,1.6,0.7,2,2.1,2c0.5,0,1.1-0.1,1.5-0.3v2.8c-1.2,0.5-2.5,0.7-3.7,0.7
		c-2.1,0-3.7-0.9-4.1-2.3c-1.9,1.4-4.7,2.3-7.2,2.3c-7.2,0-11.3-4.5-11.3-11.2c0-6.7,4.2-11.2,11.3-11.2c2.7,0,5.6,1.2,7.1,2.2
		L147.7,23.9z M136.5,42c3.1,0,5.5-1.3,6.9-2.8v-9c-1.1-1.4-3.7-2.8-6.9-2.8c-5.2,0-7.3,3.2-7.3,7.3C129.2,38.8,131.4,42,136.5,42z"
		/>
	<path class="st0" d="M160.1,23v4c2.3-2.1,7.2-3.7,9.4-3.7v4.7c-2.6,0-7.5,1.1-9.4,2.7v14.7h-4.3V24.5L160.1,23z"/>
	<path class="st0" d="M181.6,27.9V37c0,3.4,0.7,5,4.8,5c1.2,0,3.6-0.4,5.2-1v3.8c-2,0.6-4.3,1.1-5.8,1.1c-7.4,0-8.6-3.5-8.6-8.9
		v-9.1h-4.8V24h4.8v-6l4.3-1.4V24h10v3.9H181.6z"/>
	<path class="st0" d="M199.7,13.4h9.6c8,0,10.7,4,10.7,8.7c0,2.2-0.7,4.3-2.3,5.9c3.5,1.7,5.2,4.7,5.2,8c0,5-3.2,9.4-11.7,9.4h-11.5
		V13.4z M204.1,26.6h4.8c5.1,0,6.9-1.6,6.9-4.5c0-2.9-1.7-4.5-6.4-4.5h-5.3V26.6z M204.1,41.2h7.2c5.3,0,7.4-1.9,7.4-5.2
		c0-3.3-2.3-5.2-7.9-5.2h-6.7V41.2z"/>
	<path class="st0" d="M231.7,38.5l-2.6,6.8h-4.5l12.1-32h5.9l12.1,32h-4.5l-2.6-6.8H231.7z M245.9,34.3l-6.3-16.8l-6.3,16.8H245.9z"
		/>
	<path class="st0" d="M263.3,45.3h-4.2v-32h4.2l15.3,24.4V13.4h4.2v32h-4.2l-15.3-24.4V45.3z"/>
	<path class="st0" d="M309,13.4h5.8L301,28.5c7.2,0.9,9.4,6.2,11.6,11.7c0.8,1.9,1.5,2.5,2.8,2.5c0.5,0,1-0.1,1.5-0.3v2.8
		c-1.2,0.5-2.5,0.7-3.7,0.7c-2.5,0-3.8-1.9-4.4-3.1c-2.3-5.4-4.4-12.2-14.1-10.2v12.7h-4.3v-32h4.3v15.5L309,13.4z"/>
</g>
<path class="st1" d="M29.8,0C20.2,0,11.6,4.7,6.1,12h47.4C48.1,4.7,39.5,0,29.8,0z"/>
<path class="st0" d="M0,30.5c0,2.9,0.4,5.8,1.2,8.4c4.9-12,15.9-20.4,28.6-20.4c12.8,0,23.7,8.4,28.6,20.4c0.8-2.7,1.2-5.5,1.2-8.4
	c0-5.8-1.6-11.2-4.4-15.8h-51C1.6,19.3,0,24.7,0,30.5z"/>
<path class="st2" d="M6.1,12c-0.6,0.9-1.2,1.7-1.8,2.7h51c-0.5-0.9-1.1-1.8-1.8-2.7H6.1z"/>
<path class="st2" d="M8.9,30.2v0.3h0.5c0.1-0.1,0.2-0.2,0.3-0.3H8.9z"/>
<g>
	<path class="st2" d="M29.8,18.6C17.1,18.6,6.1,27,1.2,39c0.3,1.2,0.7,2.4,1.2,3.5C5.6,31.1,16.9,21.3,30,21.3
		c13.2,0,24.1,10,27.1,21.5c0.5-1.2,1-2.5,1.4-3.9C53.6,27,42.6,18.6,29.8,18.6z"/>
	<radialGradient id="SVGID_1_" cx="29.8257" cy="18.6079" r="55.856" gradientUnits="userSpaceOnUse">
		<stop  offset="0" style="stop-color:#FFFFFF"/>
		<stop  offset="0.8876" style="stop-color:#243588"/>
	</radialGradient>
	<path class="st3" d="M8.9,52.2h41.9c1.5-1.5,2.8-3.2,4-5H4.9C6,49,7.4,50.7,8.9,52.2z"/>
	<radialGradient id="SVGID_2_" cx="29.83" cy="18.6085" r="55.8526" gradientUnits="userSpaceOnUse">
		<stop  offset="0" style="stop-color:#FFFFFF"/>
		<stop  offset="0.8876" style="stop-color:#243588"/>
	</radialGradient>
	<path class="st4" d="M29.8,61c4.4,0,8.5-1,12.3-2.7H17.5C21.3,60,25.4,61,29.8,61z"/>
	<radialGradient id="SVGID_3_" cx="29.828" cy="18.6081" r="55.8542" gradientUnits="userSpaceOnUse">
		<stop  offset="0" style="stop-color:#FFFFFF"/>
		<stop  offset="0.8876" style="stop-color:#243588"/>
	</radialGradient>
	<path class="st5" d="M2.4,42.5c0.6,1.4,1.3,2.8,2.1,4.1h50.6c0.7-1.2,1.4-2.5,2-3.8c-0.1-0.4-0.2-0.8-0.3-1.2H2.7
		C2.6,41.9,2.5,42.2,2.4,42.5z"/>
	<radialGradient id="SVGID_4_" cx="29.8318" cy="18.6081" r="55.8455" gradientUnits="userSpaceOnUse">
		<stop  offset="0" style="stop-color:#FFFFFF"/>
		<stop  offset="0.8876" style="stop-color:#243588"/>
	</radialGradient>
	<path class="st6" d="M43.4,25H16.4c-2.4,1.4-4.6,3.1-6.6,5h39.9C47.9,28,45.7,26.3,43.4,25z"/>
	<radialGradient id="SVGID_5_" cx="29.8288" cy="18.6081" r="55.8515" gradientUnits="userSpaceOnUse">
		<stop  offset="0" style="stop-color:#FFFFFF"/>
		<stop  offset="0.8876" style="stop-color:#243588"/>
	</radialGradient>
	<path class="st7" d="M30,21.3c-4.5,0-8.7,1.1-12.5,3.1h24.9C38.6,22.4,34.5,21.3,30,21.3z"/>
	<radialGradient id="SVGID_6_" cx="29.8279" cy="18.6079" r="55.8539" gradientUnits="userSpaceOnUse">
		<stop  offset="0" style="stop-color:#FFFFFF"/>
		<stop  offset="0.8876" style="stop-color:#243588"/>
	</radialGradient>
	<path class="st8" d="M50.3,30.5H9.4c-1.5,1.5-2.8,3.2-3.8,5H54C53,33.7,51.7,32.1,50.3,30.5z"/>
	<radialGradient id="SVGID_7_" cx="29.8282" cy="18.6082" r="55.8533" gradientUnits="userSpaceOnUse">
		<stop  offset="0" style="stop-color:#FFFFFF"/>
		<stop  offset="0.8876" style="stop-color:#243588"/>
	</radialGradient>
	<path class="st9" d="M54.4,36.1H5.2c-0.9,1.6-1.7,3.3-2.3,5h53.7C56,39.3,55.3,37.7,54.4,36.1z"/>
	<radialGradient id="SVGID_8_" cx="29.8225" cy="18.6083" r="55.8556" gradientUnits="userSpaceOnUse">
		<stop  offset="0" style="stop-color:#FFFFFF"/>
		<stop  offset="0.8876" style="stop-color:#243588"/>
	</radialGradient>
	<path class="st10" d="M16.4,57.7h26.9c2.6-1.3,4.9-3,7-5H9.4C11.5,54.7,13.8,56.4,16.4,57.7z"/>
	<path class="st2" d="M2.8,41.3c0,0.1-0.1,0.2-0.1,0.3h54.1c0-0.1-0.1-0.2-0.1-0.3H2.8z"/>
	<path class="st2" d="M56.7,41.3c0-0.1-0.1-0.2-0.1-0.2H2.9c0,0.1-0.1,0.2-0.1,0.2H56.7z"/>
	<path class="st2" d="M54.2,35.7c0-0.1-0.1-0.2-0.1-0.2H5.5c0,0.1-0.1,0.2-0.1,0.2H54.2z"/>
	<path class="st2" d="M54.2,35.7H5.4c-0.1,0.1-0.1,0.2-0.2,0.3h49.2C54.3,36,54.2,35.9,54.2,35.7z"/>
	<path class="st2" d="M50,30.2H9.7c-0.1,0.1-0.2,0.2-0.3,0.3h40.9C50.2,30.4,50.1,30.3,50,30.2z"/>
	<path class="st2" d="M9.7,30.2H50c-0.1-0.1-0.1-0.2-0.2-0.2H9.9C9.8,30,9.7,30.1,9.7,30.2z"/>
	<path class="st2" d="M42.8,24.6H17.1c-0.2,0.1-0.4,0.2-0.6,0.3h26.9C43.2,24.8,43,24.7,42.8,24.6z"/>
	<path class="st2" d="M42.8,24.6c-0.1-0.1-0.3-0.2-0.4-0.2H17.5c-0.1,0.1-0.3,0.1-0.4,0.2H42.8z"/>
	<path class="st2" d="M4.7,46.9H55c0.1-0.1,0.1-0.2,0.2-0.3H4.5C4.6,46.7,4.6,46.8,4.7,46.9z"/>
	<path class="st2" d="M4.7,46.9c0.1,0.1,0.1,0.2,0.2,0.3h49.9c0.1-0.1,0.1-0.2,0.2-0.3H4.7z"/>
	<path class="st2" d="M9.1,52.4h41.4c0.1-0.1,0.2-0.2,0.3-0.3H8.9C8.9,52.3,9,52.4,9.1,52.4z"/>
	<path class="st2" d="M9.1,52.4c0.1,0.1,0.2,0.2,0.3,0.3h40.8c0.1-0.1,0.2-0.2,0.3-0.3H9.1z"/>
	<path class="st2" d="M16.9,58h25.9c0.2-0.1,0.3-0.2,0.5-0.3H16.4C16.5,57.8,16.7,57.9,16.9,58z"/>
	<path class="st2" d="M16.9,58c0.2,0.1,0.4,0.2,0.7,0.3h24.6c0.2-0.1,0.4-0.2,0.7-0.3H16.9z"/>
</g>
</svg>
