<svg viewBox="0 0 500 500" xmlns="http://www.w3.org/2000/svg">
  <defs></defs>
  <g transform="matrix(0.165639, 0, 0, -0.150906, -14.192067, 559.546265)" fill="#000000" stroke="none" style="">
    <path d="M1739 3683 c-1 -5 -1 -12 0 -16 1 -5 -7 -6 -17 -3 -21 7 -99 -45 -109 -72 -3 -9 -12 -24 -18 -32 -19 -22 -37 -88 -29 -101 5 -8 10 -6 18 7 6 11 11 21 11 24 0 11 40 47 59 53 10 4 16 13 13 21 -3 8 1 17 9 20 8 3 14 12 14 21 0 8 6 15 14 15 8 0 17 7 20 16 3 9 13 14 21 10 8 -3 17 -1 20 4 4 6 13 10 21 10 10 0 12 -5 8 -12 -6 -10 -4 -10 7 -3 8 6 21 10 31 10 20 0 136 -92 143 -114 3 -9 17 -29 31 -46 l25 -30 -11 30 c-6 16 -16 35 -21 41 -7 9 -5 14 8 17 14 4 13 5 -4 6 -13 0 -23 6 -23 11 0 6 -5 10 -12 10 -6 0 -26 17 -44 39 -44 51 -93 75 -129 61 -33 -13 -48 -13 -40 0 3 6 1 10 -4 10 -6 0 -12 -3 -12 -7z"></path>
    <path d="M1795 3460 c-3 -5 -3 -15 1 -22 4 -7 3 -8 -4 -4 -7 4 -12 2 -12 -3 0 -6 7 -11 16 -11 9 0 14 -8 13 -17 -1 -10 0 -21 1 -25 1 -5 3 -13 4 -20 0 -6 8 -13 16 -15 13 -4 13 -3 0 6 -11 8 -12 11 -2 11 9 0 11 7 7 21 -5 14 -3 19 3 15 16 -10 11 36 -6 57 -17 19 -28 22 -37 7z"></path>
    <path d="M1597 3453 c-4 -3 -7 -17 -7 -31 0 -21 -2 -22 -15 -12 -8 7 -15 8 -15 3 0 -5 11 -15 24 -21 19 -9 25 -8 30 4 3 8 13 14 23 14 17 1 17 1 1 11 -10 5 -18 17 -18 24 0 16 -12 20 -23 8z"></path>
    <path d="M2019 3393 c-4 -46 -23 -73 -49 -73 -10 0 -20 -9 -23 -20 -3 -13 0 -20 9 -20 8 0 11 -6 7 -16 -3 -8 -12 -13 -20 -10 -9 4 -17 -1 -20 -14 -3 -11 -9 -20 -13 -20 -4 0 -10 -9 -13 -20 -3 -14 1 -24 15 -31 11 -6 20 -9 21 -7 42 83 103 197 114 209 7 8 13 19 13 22 0 10 -40 9 -41 0z"></path>
    <path d="M2238 3241 c67 -23 89 -44 104 -95 6 -23 15 -46 20 -53 5 -6 5 -14 -1 -17 -6 -4 -15 2 -20 12 -6 11 -22 27 -37 37 -17 11 -23 12 -18 4 12 -21 67 -64 76 -61 4 1 9 -15 9 -35 1 -21 4 -51 8 -68 7 -29 7 -29 14 14 5 27 4 48 -3 55 -5 5 -10 23 -10 38 0 15 -4 28 -10 28 -5 0 -10 12 -10 28 0 33 -31 86 -62 105 -13 9 -43 18 -68 21 l-45 6 53 -19z"></path>
    <path d="M2031 3113 c-6 -21 -11 -51 -11 -66 0 -16 -4 -26 -9 -23 -12 8 -1 -34 17 -61 8 -13 12 -29 9 -37 -3 -8 1 -20 9 -27 8 -6 13 -14 10 -16 -2 -3 2 -21 11 -40 13 -33 13 -37 -1 -45 -21 -12 -21 -29 0 -21 9 3 20 0 25 -8 13 -21 12 20 -2 59 -9 25 -7 38 5 63 9 18 14 34 11 37 -2 3 -11 -10 -18 -27 l-14 -33 -13 49 c-8 26 -19 57 -26 68 -10 16 -10 33 2 89 16 75 12 102 -5 39z"></path>
    <path d="M2265 3069 c4 -6 9 -8 12 -5 2 2 13 -4 24 -15 20 -20 45 -26 34 -9 -3 6 -12 10 -20 10 -7 0 -15 7 -19 15 -3 8 -13 15 -21 15 -9 0 -13 -5 -10 -11z"></path>
    <path d="M2401 2939 c-16 -45 -14 -89 3 -89 11 0 13 12 11 48 -1 26 2 53 7 60 7 8 7 12 0 12 -5 0 -15 -14 -21 -31z"></path>
    <path d="M2546 2885 c4 -17 15 -48 24 -70 9 -22 27 -79 40 -127 12 -49 27 -88 32 -88 6 0 7 -7 4 -15 -6 -16 0 -35 59 -185 18 -47 40 -103 49 -125 8 -22 15 -32 15 -22 1 10 -13 55 -31 100 -18 45 -31 85 -30 89 4 14 -39 118 -48 118 -5 0 -7 6 -4 14 5 13 -33 133 -83 266 -28 73 -38 90 -27 45z"></path>
    <path d="M2265 2825 c-95 -23 -168 -71 -148 -97 15 -20 9 -76 -9 -98 -9 -10 -25 -34 -34 -52 -9 -18 -24 -42 -33 -52 -13 -16 -14 -18 -1 -14 8 2 24 22 36 44 19 37 23 39 65 37 24 -1 35 1 24 4 -31 8 -40 20 -26 36 7 9 9 30 5 54 -5 35 -3 42 21 61 15 12 37 22 49 22 12 0 39 9 60 20 79 40 80 38 86 -77 3 -58 10 -107 17 -114 6 -6 9 -19 6 -28 -4 -13 -3 -14 5 -2 7 10 7 21 0 35 -16 29 -22 194 -8 210 22 27 -30 32 -115 11z"></path>
    <path d="M2203 2625 c-18 -20 -16 -23 10 -18 13 3 24 11 24 19 0 18 -18 17 -34 -1z"></path>
    <path d="M 1613 3344 C 1609 3334 1613 3324 1623 3318 C 1635 3312 1640 3296 1640 3265 C 1640 3226 1643 3220 1661 3220 C 1673 3220 1684 3212 1687 3200 C 1690 3189 1699 3180 1706 3180 C 1714 3180 1720 3175 1720 3169 C 1720 3163 1728 3161 1739 3165 C 1753 3169 1762 3165 1770 3150 C 1776 3139 1786 3130 1793 3130 C 1802 3130 1909.213 3138.568 1905.213 3149.568 C 1902.213 3157.568 1905 3160 1901 3165 C 1898 3171 1880 3167 1880 3167 L 1852 3162 C 1833 3160 1819 3165 1806 3179 C 1795 3191 1781 3200 1774 3200 C 1767 3200 1760 3205 1758 3211 C 1755 3220 1748 3220 1732 3211 C 1711 3200 1708 3202 1699 3230 C 1693 3247 1679 3265 1669 3271 C 1650 3281 1650 3282 1668 3308 C 1690 3339 1687 3368 1664 3349 C 1656 3343 1653 3334 1656 3329 C 1662 3319 1647 3317 1637 3327 C 1633 3330 1638 3339 1648 3346 C 1664 3358 1663 3359 1642 3360 C 1630 3360 1617 3353 1613 3344 Z"></path>
    <path d="M2286 2558 c-20 -29 -20 -35 2 -33 33 4 52 17 52 36 0 27 -35 24 -54 -3z"></path>
    <path d="M2360 2533 c5 -16 20 -55 34 -88 14 -33 26 -66 26 -72 0 -7 5 -13 10 -13 6 0 10 6 10 13 0 23 -26 98 -32 92 -3 -3 -15 17 -27 45 -23 54 -35 67 -21 23z"></path>
    <path d="M2237 2499 c4 -15 0 -22 -16 -26 -11 -3 -21 -9 -21 -14 0 -5 -17 -17 -37 -25 -21 -9 -46 -21 -56 -26 -10 -5 -22 -6 -27 -3 -6 4 -10 1 -10 -5 0 -6 -4 -9 -9 -6 -5 3 -11 -1 -15 -9 -9 -25 10 -26 64 -5 109 43 180 88 180 114 -1 6 -10 0 -22 -14 l-21 -25 5 33 c3 21 0 32 -8 32 -7 0 -10 -8 -7 -21z"></path>
    <path d="M1957 2453 c-3 -3 -4 -10 -2 -16 2 -7 6 -26 9 -43 5 -29 3 -31 -17 -27 -21 4 -22 4 -3 -11 11 -9 31 -16 44 -16 13 0 31 -7 40 -16 19 -20 28 -3 13 23 -6 10 -11 13 -11 6 0 -6 -9 -9 -20 -6 -19 5 -25 25 -21 79 2 20 -21 39 -32 27z"></path>
    <path d="M1772 2438 c-16 -16 -15 -37 4 -73 11 -21 15 -59 16 -130 l0 -100 -52 -45 c-50 -43 -52 -48 -45 -81 l7 -34 -21 19 c-20 18 -21 18 -27 1 -4 -10 -3 -30 3 -45 8 -22 7 -29 -8 -38 -23 -15 -36 3 -17 25 7 9 -6 4 -29 -10 -23 -14 -53 -29 -66 -33 -32 -7 -61 -39 -54 -57 3 -8 0 -20 -6 -26 -8 -8 -5 -11 11 -11 12 0 22 -3 22 -7 0 -8 -37 -45 -57 -56 -15 -9 -44 2 -37 15 3 5 0 9 -7 7 -8 -1 -34 -1 -59 0 -41 2 -43 3 -20 13 42 17 71 19 86 7 11 -9 14 -8 14 5 0 13 -11 16 -54 16 -44 0 -58 -4 -69 -21 -12 -16 -32 -23 -89 -30 -79 -10 -195 -40 -225 -59 -17 -10 -17 -11 2 -6 11 3 47 8 80 12 33 4 70 13 82 21 16 10 44 14 97 11 46 -2 74 1 73 7 -1 6 13 11 30 13 26 3 32 0 27 -12 -5 -13 2 -16 35 -16 23 0 41 -3 41 -7 0 -5 -15 -20 -34 -35 -19 -15 -36 -38 -38 -50 -3 -20 -9 -23 -58 -25 -114 -5 -275 -26 -341 -44 -115 -32 -200 -19 -114 17 39 16 188 53 220 54 11 1 80 4 153 6 72 3 132 10 132 15 0 5 -53 9 -119 9 -86 0 -121 3 -124 13 -4 8 -6 7 -6 -4 -1 -11 -14 -16 -48 -18 -210 -10 -382 -102 -480 -256 -18 -27 -40 -58 -49 -67 -14 -15 -16 -32 -12 -108 3 -52 11 -97 19 -106 7 -9 13 -25 14 -36 2 -19 20 -38 38 -38 10 0 3 60 -11 86 -15 28 -25 108 -17 134 4 14 16 20 38 21 19 1 24 3 12 6 -11 2 -30 6 -43 9 -41 9 -22 21 21 13 23 -4 60 -8 82 -9 37 0 42 -3 65 -48 l25 -47 185 -3 c177 -2 187 -1 240 22 30 13 82 32 115 41 l60 16 2 97 c1 53 6 118 11 145 6 27 6 50 1 53 -14 8 -17 -9 -31 -155 l-13 -134 -68 -19 c-38 -10 -82 -25 -97 -33 -20 -11 -82 -17 -213 -21 l-185 -7 -22 50 -21 50 -72 9 c-43 5 -72 14 -72 21 0 6 11 24 25 40 14 15 45 54 70 85 l45 57 95 1 c68 0 109 5 145 19 64 25 245 48 392 51 6 0 16 15 23 33 15 45 73 87 122 87 21 0 38 5 38 10 0 6 -11 10 -25 10 -26 0 -26 0 -8 24 21 28 60 31 74 5 7 -13 6 -19 -1 -19 -6 0 -8 -4 -5 -10 3 -5 -2 -10 -12 -10 -17 -1 -17 -1 0 -11 9 -5 17 -15 17 -22 0 -8 -3 -8 -9 2 -5 8 -11 9 -15 3 -10 -17 5 -42 24 -42 11 0 22 -4 25 -10 3 -5 25 -10 48 -10 32 0 38 3 29 12 -7 7 -12 18 -12 26 0 11 8 9 32 -6 35 -23 34 -16 39 -207 2 -109 5 -101 14 48 6 84 9 96 22 86 11 -10 14 -33 11 -106 -2 -51 0 -93 5 -93 4 0 7 -7 7 -16 0 -8 -4 -13 -9 -9 -5 3 -13 0 -17 -6 -3 -6 0 -15 7 -20 9 -5 14 -27 14 -64 0 -55 0 -56 -18 -34 -22 28 -30 21 -13 -12 14 -28 13 -23 21 -134 4 -44 11 -82 16 -86 16 -10 -15 -75 -45 -94 -14 -10 -26 -21 -26 -26 0 -5 -18 -39 -39 -74 l-40 -65 27 6 c23 4 24 4 9 -6 -20 -13 -52 -6 -43 9 10 15 -43 104 -80 134 -60 51 -223 67 -296 31 -43 -22 -87 -75 -104 -128 -20 -58 -13 -151 14 -207 10 -20 16 -41 15 -46 -6 -16 -62 0 -115 31 -45 26 -98 35 -98 16 0 -5 15 -10 33 -10 17 0 46 -7 62 -16 132 -72 263 -111 396 -117 60 -2 65 -1 56 14 -8 13 -22 16 -73 11 -119 -9 -201 34 -251 132 -52 101 -32 214 51 280 31 26 48 31 104 34 56 3 77 0 127 -22 74 -33 91 -48 122 -111 22 -43 25 -58 21 -125 l-5 -75 18 43 c11 24 16 48 13 54 -8 13 24 47 66 68 54 28 72 54 78 112 3 34 13 64 28 83 26 34 84 154 84 173 0 6 4 12 8 12 20 0 27 60 19 178 -5 68 -6 127 -2 130 3 4 34 -4 68 -17 34 -12 73 -24 87 -25 14 -2 16 -1 5 1 -11 3 -25 9 -32 15 -7 5 -32 16 -55 23 -37 10 -43 16 -44 40 -1 35 -30 58 -67 52 -23 -3 -34 4 -63 38 -19 23 -34 53 -34 66 0 16 -3 20 -8 11 -6 -9 -22 -5 -65 20 -75 44 -74 58 6 51 34 -3 67 -9 72 -13 6 -4 26 -2 44 5 46 15 24 30 -41 26 -59 -3 -143 32 -134 56 3 8 6 42 6 74 0 35 4 58 9 54 5 -3 11 5 13 17 2 16 10 23 26 23 13 0 49 24 87 58 36 32 70 55 75 52 6 -4 20 5 31 19 11 14 30 26 42 26 20 1 21 2 5 14 -17 12 -17 14 2 31 32 29 24 40 -42 52 l-61 12 -36 -35 c-19 -18 -39 -34 -43 -34 -13 0 -9 18 8 34 14 15 14 16 -3 17 -17 0 -16 1 1 8 14 5 16 10 8 15 -12 7 -17 76 -7 76 3 0 18 -9 34 -20 15 -12 38 -22 52 -23 13 -1 58 -20 99 -43 84 -46 90 -43 68 35 -9 30 -21 47 -36 52 l-23 9 21 -30 c12 -17 18 -30 15 -30 -17 0 -64 35 -68 51 -4 16 -9 16 -43 7 -50 -15 -49 -14 -33 -35 13 -17 13 -17 -7 0 -11 9 -26 17 -32 17 -17 0 -52 37 -52 55 0 9 -6 18 -14 21 -8 3 -12 13 -9 25 3 11 0 19 -6 19 -9 0 -9 5 -1 20 12 23 9 25 -8 8z m174 -256 c21 -13 -4 -51 -59 -86 -29 -19 -59 -41 -67 -51 -20 -24 -64 -45 -78 -36 -8 5 18 37 77 94 85 84 103 95 127 79z m-267 -367 c-1 -77 -3 -85 -21 -85 -10 0 -16 4 -13 10 3 6 -1 7 -9 4 -10 -4 -19 3 -27 19 -10 22 -7 32 26 81 20 31 39 56 41 56 2 0 4 -38 3 -85z m-125 43 c14 -23 -3 -53 -30 -53 -13 0 -18 6 -16 20 2 11 4 28 5 38 2 22 26 18 41 -5z m128 -192 c3 -17 -1 -21 -24 -23 -29 -2 -32 0 -42 49 l-6 28 34 -17 c19 -9 36 -25 38 -37z m198 -171 c1 -5 5 -44 8 -86 l7 -76 -25 14 -25 15 23 -20 c22 -20 29 -42 14 -42 -4 0 -14 6 -22 13 -8 6 -6 2 3 -10 16 -18 17 -27 7 -62 -8 -29 -8 -46 0 -59 8 -13 9 -11 4 13 -4 23 -3 27 5 15 8 -11 10 -7 6 20 -4 27 -3 30 4 15 5 -11 10 -15 10 -8 1 7 7 10 14 7 9 -3 13 -19 12 -42 -1 -28 -6 -40 -25 -49 -14 -7 -32 -13 -41 -13 -11 0 -16 -10 -16 -32 -1 -26 1 -29 7 -13 4 11 6 23 4 26 -6 10 46 17 52 7 3 -5 -6 -25 -21 -44 -15 -19 -24 -42 -21 -50 3 -9 1 -12 -4 -9 -6 3 -10 -3 -10 -14 0 -11 -4 -22 -9 -25 -4 -3 -6 6 -3 21 3 18 1 24 -7 19 -8 -5 -11 14 -11 69 0 52 3 74 11 70 7 -5 10 19 7 79 -2 47 1 86 5 86 5 0 5 4 2 10 -3 5 -8 54 -11 107 -3 54 -7 105 -10 113 -3 8 9 -1 25 -20 17 -19 31 -39 31 -45z m60 -171 c0 -19 -4 -25 -15 -20 -8 3 -15 1 -15 -4 0 -6 5 -10 10 -10 6 0 10 -9 10 -20 0 -11 -4 -20 -10 -20 -5 0 -10 7 -10 16 0 8 -4 13 -9 9 -13 -7 -3 45 11 62 17 21 28 15 28 -13z m-150 -470 c-13 -33 -36 -61 -64 -76 -22 -12 -20 -8 32 65 38 52 49 56 32 11z"></path>
    <path d="M2371 2350 c-1 -32 13 -55 29 -45 7 4 8 10 3 14 -5 3 -14 17 -20 31 l-12 25 0 -25z"></path>
    <path d="M2420 2347 c0 -14 43 -86 60 -102 l23 -20 -17 33 c-9 17 -22 32 -29 32 -9 0 -9 2 -1 8 16 10 -1 52 -21 52 -8 0 -15 -1 -15 -3z"></path>
    <path d="M2516 2341 c-6 -10 20 -48 28 -41 7 8 -5 50 -15 50 -4 0 -10 -4 -13 -9z"></path>
    <path d="M2411 2265 c28 -61 32 -65 71 -65 24 0 37 4 33 10 -3 6 -15 10 -25 10 -10 0 -33 12 -51 27 -18 15 -30 23 -28 18z"></path>
    <path d="M2365 2171 c-10 -17 31 -31 89 -31 65 0 76 15 14 19 -23 1 -46 5 -51 8 -5 3 -13 -1 -18 -8 -7 -11 -9 -10 -9 4 0 18 -15 23 -25 8z"></path>
    <path d="M2708 2146 c3 -5 -3 -6 -14 -2 -15 6 -16 5 -7 -5 9 -9 19 -9 40 -1 15 6 37 13 48 15 11 3 -1 4 -26 3 -26 0 -44 -5 -41 -10z"></path>
    <path d="M2540 2113 c4 -21 11 -50 15 -65 6 -22 4 -28 -9 -28 -25 0 -30 -1 -56 -15 -82 -41 -227 -78 -280 -71 -46 6 -47 5 -47 -19 0 -23 20 -35 31 -17 2 4 28 5 57 2 49 -5 54 -7 74 -46 12 -23 25 -61 27 -85 3 -24 9 -53 14 -63 5 -14 4 -17 -4 -12 -7 4 -12 1 -12 -8 0 -8 4 -17 9 -20 5 -3 7 -14 5 -24 -3 -9 2 -26 11 -37 28 -34 12 142 -20 230 -14 38 -23 75 -21 82 3 7 19 13 35 13 16 0 32 4 36 9 3 5 20 13 38 16 17 4 59 21 92 37 37 18 70 28 88 25 18 -2 27 1 27 10 0 8 4 12 9 9 5 -4 11 -1 13 5 2 5 10 7 19 4 18 -7 14 -65 -4 -65 -7 0 -7 -4 1 -12 7 -7 12 -21 12 -33 0 -12 5 -26 11 -32 5 -5 11 -25 11 -42 1 -18 6 -30 12 -28 15 5 15 31 0 102 -7 33 -13 77 -13 99 -1 35 1 37 16 25 10 -9 14 -9 10 -2 -7 11 29 40 39 31 10 -11 14 -78 5 -78 -6 0 -11 6 -11 14 0 8 -3 17 -7 19 -5 3 -6 -18 -4 -45 l3 -51 24 48 c18 35 23 56 18 81 -5 26 -3 34 9 34 8 0 17 7 21 15 7 20 4 19 -52 -9 -26 -13 -72 -31 -102 -40 -30 -9 -62 -21 -71 -26 -19 -10 -29 -4 -29 17 0 15 -42 83 -51 83 -4 0 -3 -17 1 -37z"></path>
    <path d="M2614 2115 c17 -13 34 -22 38 -19 14 9 0 21 -34 33 l-33 11 29 -25z"></path>
    <path d="M2355 2093 c-16 -3 -34 -9 -40 -15 -12 -12 61 -2 85 13 17 10 12 10 -45 2z"></path>
    <path d="M1900 1910 c0 -5 10 -12 23 -16 21 -7 21 -7 2 -15 -28 -11 -67 -11 -61 0 3 5 -1 12 -10 15 -24 9 -44 7 -44 -5 0 -5 5 -7 10 -4 6 3 10 1 10 -5 0 -5 -13 -9 -30 -8 -16 1 -30 6 -30 11 0 4 -4 5 -10 2 -26 -16 -3 -25 67 -24 110 1 152 20 98 46 -14 6 -25 7 -25 3z"></path>
    <path d="M2152 1859 c-2 -30 14 -83 36 -117 33 -51 19 11 -16 72 -3 5 -1 6 4 3 6 -3 16 -1 24 4 11 8 8 10 -12 6 -24 -4 -27 0 -31 27 -3 27 -4 28 -5 5z"></path>
    <path d="M1741 1788 c-10 -27 -3 -32 53 -42 33 -6 38 -5 32 9 -3 9 -6 25 -6 36 0 30 -68 27 -79 -3z"></path>
    <path d="M2702 1763 c-6 -12 -4 -31 9 -58 l18 -40 0 38 c1 20 -3 37 -8 37 -6 0 -8 9 -6 20 5 25 -1 26 -13 3z"></path>
    <path d="M2176 1690 c3 -19 6 -44 6 -55 0 -19 0 -19 10 1 6 12 20 27 32 33 19 10 19 10 -5 5 -22 -5 -29 -1 -38 23 -11 27 -11 27 -5 -7z"></path>
    <path d="M2654 1605 c3 -66 6 -127 7 -136 0 -10 8 -15 22 -13 12 1 25 3 30 3 4 1 1 11 -7 24 -22 34 -43 116 -45 177 -1 30 -5 57 -8 60 -3 3 -2 -49 1 -115z"></path>
    <path d="M1205 1680 c-15 -6 -6 -9 33 -9 28 -1 52 4 52 9 0 12 -57 12 -85 0z"></path>
    <path d="M2580 1658 c0 -19 18 -43 26 -35 4 3 1 14 -7 24 -9 11 -10 14 -1 9 6 -4 12 -2 12 3 0 6 -7 11 -15 11 -8 0 -15 -6 -15 -12z"></path>
    <path d="M2147 1564 c-15 -15 -7 -104 11 -122 16 -16 17 -42 17 -279 -1 -210 -3 -264 -15 -278 -8 -9 -15 -37 -15 -62 -2 -33 -7 -48 -20 -56 -11 -6 -29 -21 -41 -34 -12 -12 -26 -23 -32 -23 -20 0 -24 -21 -8 -45 15 -22 15 -25 1 -25 -8 0 -15 9 -15 20 0 11 -4 20 -10 20 -5 0 -10 -5 -10 -11 0 -5 -4 -8 -9 -5 -4 3 -36 1 -70 -5 -52 -10 -62 -15 -67 -36 -7 -27 6 -45 33 -49 10 -1 38 -5 63 -9 32 -5 69 -1 127 14 45 12 108 20 140 20 l58 -2 -70 -7 c-38 -4 -97 -15 -129 -25 -57 -17 -129 -17 -181 0 -11 3 -3 -2 17 -13 22 -12 47 -17 64 -14 19 3 25 1 20 -7 -5 -7 0 -11 13 -11 12 0 21 4 21 10 0 5 13 7 32 3 18 -3 29 -2 26 3 -4 5 4 10 15 10 12 1 47 7 77 13 30 6 80 14 111 17 31 3 65 12 75 20 13 11 14 14 4 11 -13 -4 -14 5 -9 57 3 33 7 67 10 75 2 8 -4 17 -13 19 -14 2 -18 -3 -18 -22 0 -29 -25 -40 -83 -37 -23 1 -36 -2 -33 -8 4 -5 -15 -9 -44 -9 -38 -1 -50 3 -50 14 0 8 -5 12 -11 9 -6 -4 -8 -13 -5 -21 3 -8 0 -11 -8 -8 -8 3 -16 -3 -18 -14 -5 -17 0 -20 41 -20 37 0 41 2 21 8 -19 6 -11 8 32 9 31 1 60 5 63 11 3 5 19 7 35 3 17 -3 36 0 44 6 12 10 14 8 12 -12 -4 -37 -15 -47 -49 -46 -29 0 -30 1 -9 9 12 5 22 11 22 12 0 2 -21 4 -47 4 -45 2 -46 1 -22 -13 23 -13 21 -14 -26 -9 -34 4 -45 3 -35 -4 11 -7 8 -10 -16 -10 -17 0 -48 -7 -67 -15 -44 -18 -52 -19 -40 -2 19 23 24 67 10 73 -8 3 -14 11 -14 19 0 19 2 19 23 -3 16 -15 17 -15 12 0 -4 9 -1 22 7 28 8 7 12 16 9 21 -3 5 17 0 45 -11 28 -11 51 -17 51 -15 0 3 -12 10 -26 16 -15 5 -24 12 -20 16 3 3 1 12 -5 20 -13 15 2 18 17 3 12 -12 74 -31 74 -23 0 12 -36 32 -57 33 -33 0 -39 20 -6 20 l28 1 -22 18 c-28 23 -29 38 -5 45 10 4 19 12 19 19 0 6 4 31 7 55 5 28 3 49 -4 57 -9 10 -7 20 5 39 13 19 14 29 6 45 -7 13 -8 28 -2 44 6 14 7 27 4 31 -6 6 -11 156 -5 156 2 0 12 -5 24 -11 36 -19 30 -2 -7 20 -34 20 -35 22 -34 76 1 32 7 55 13 56 6 0 0 4 -12 10 -31 12 -23 32 14 40 27 6 27 7 -8 8 -42 1 -56 31 -15 31 12 0 29 5 37 10 11 7 6 10 -22 10 -20 0 -38 5 -40 11 -2 5 -7 7 -11 3z m-222 -934 c5 -8 12 -7 23 2 9 7 13 8 9 2 -8 -14 25 -25 43 -14 14 9 60 1 60 -11 0 -5 -7 -9 -16 -9 -8 0 -22 -7 -30 -15 -9 -8 -24 -15 -33 -15 -10 0 -24 7 -31 15 -7 8 -18 15 -25 15 -16 0 -37 25 -28 33 9 10 21 8 28 -3z"></path>
    <path d="M2351 1489 c-9 -41 -9 -54 1 -61 31 -19 59 1 32 23 -9 8 -14 25 -12 45 4 54 -9 49 -21 -7z"></path>
    <path d="M2410 1485 c0 -16 31 -117 47 -150 10 -22 44 -67 75 -99 59 -61 63 -70 103 -224 9 -35 26 -87 38 -115 33 -77 29 -163 -11 -250 -17 -37 -40 -80 -52 -96 -11 -16 -21 -41 -22 -55 -1 -14 -8 -26 -15 -26 -7 0 -13 -5 -13 -11 0 -5 4 -8 9 -5 5 4 11 2 13 -4 4 -12 112 -33 136 -27 9 3 1 6 -18 7 -33 2 -34 2 -10 11 22 7 21 8 -10 7 -51 -2 -90 11 -83 28 7 19 19 18 41 -4 17 -17 24 -17 78 -6 66 13 85 11 33 -5 l-34 -9 37 1 c20 1 34 6 30 11 -3 5 1 7 10 4 8 -4 15 0 15 8 0 7 -4 11 -9 8 -15 -9 -8 3 9 17 9 8 14 9 10 3 -3 -6 0 -11 7 -11 8 0 11 8 8 21 -3 12 -1 18 3 13 5 -4 20 21 33 55 13 35 31 81 40 104 14 37 14 46 0 110 l-16 69 -1 -48 c-1 -35 -9 -60 -33 -97 -35 -52 -48 -61 -48 -32 -1 16 -1 16 -11 -1 -8 -14 -7 -23 7 -38 10 -11 12 -19 6 -19 -7 0 -12 -8 -12 -17 0 -12 8 -7 29 17 16 19 25 38 19 41 -5 3 -2 11 7 19 8 7 16 11 16 9 7 -22 6 -58 -1 -54 -11 7 -33 -32 -25 -44 7 -12 -16 -62 -26 -56 -4 3 -15 -8 -25 -24 -14 -24 -25 -30 -67 -34 -55 -7 -117 12 -117 36 0 17 29 28 85 34 63 5 65 6 65 14 0 4 -7 9 -15 13 -8 3 -15 1 -15 -4 0 -6 -11 -10 -25 -10 -14 0 -25 5 -25 11 0 6 9 8 20 4 14 -5 20 -2 20 9 0 9 -8 16 -18 16 -28 0 -34 11 -15 32 12 13 13 18 3 18 -9 0 -7 5 5 13 10 8 15 19 12 24 -4 6 2 18 13 28 11 10 20 23 20 28 0 6 -6 3 -12 -6 -11 -15 -13 -12 -14 20 -1 21 1 31 4 23 5 -14 40 -44 52 -45 3 -1 16 -5 29 -9 18 -6 21 -10 10 -17 -12 -7 -11 -9 2 -9 15 0 39 18 39 30 0 4 -18 13 -40 20 -43 14 -96 62 -86 79 9 14 54 -5 82 -35 26 -27 34 -22 34 22 l0 32 -48 -3 c-45 -3 -48 -2 -62 28 -7 18 -21 37 -29 44 -9 7 -11 13 -6 13 6 0 4 4 -3 8 -7 5 -19 37 -27 73 -7 35 -17 74 -21 87 -5 19 -3 22 20 22 18 0 25 -4 20 -12 -4 -7 -3 -8 4 -4 20 12 13 26 -11 26 -13 0 -32 9 -42 20 -17 19 -17 19 51 14 83 -6 69 5 -37 30 -71 17 -119 40 -108 51 3 3 43 1 89 -3 71 -7 86 -6 100 8 15 15 10 17 -79 19 -106 2 -163 21 -170 56 -3 19 -2 19 16 3 13 -12 42 -19 91 -22 40 -3 77 -8 82 -11 5 -3 11 -1 15 5 3 5 15 10 25 10 10 0 21 4 24 8 3 5 -8 8 -25 7 -16 -1 -32 2 -35 7 -3 5 -18 7 -32 3 -69 -14 -110 -9 -144 20 -35 29 -51 51 -53 75 -3 24 -16 50 -26 50 -5 0 -9 -2 -9 -5z"></path>
    <path d="M981 1419 c-35 -57 -5 -94 84 -104 78 -8 105 5 105 51 0 41 -23 59 -94 73 -78 15 -74 16 -95 -20z m122 -5 l49 -7 -7 -36 c-4 -20 -8 -38 -10 -40 -2 -1 -35 2 -74 9 l-71 12 0 40 c0 40 0 40 33 35 17 -3 54 -9 80 -13z"></path>
    <path d="M1015 1400 c28 -12 55 -12 55 0 0 6 -17 10 -37 9 -31 0 -34 -2 -18 -9z"></path>
    <path d="M2320 1403 c-6 -33 -4 -39 17 -50 13 -7 34 -8 50 -4 l28 7 -33 12 c-17 6 -32 16 -32 22 0 6 -4 9 -9 6 -5 -4 -12 0 -14 6 -4 10 -6 10 -7 1z"></path>
    <path d="M691 1273 c19 -3 31 -15 44 -44 10 -21 20 -37 23 -34 3 3 -3 23 -13 45 -16 35 -22 40 -49 39 -28 -2 -29 -2 -5 -6z"></path>
    <path d="M2351 1168 c-1 -21 -5 -25 -21 -21 -11 3 -20 0 -20 -6 0 -6 6 -11 14 -11 17 0 25 -32 21 -88 -1 -23 2 -45 6 -48 5 -3 9 6 9 20 0 14 5 28 10 31 16 10 12 62 -5 69 -22 8 -18 28 4 21 23 -7 33 5 20 25 -6 10 -9 11 -9 3 0 -22 -18 -14 -23 10 -4 19 -4 19 -6 -5z"></path>
    <path d="M1641 1175 c9 -8 99 -11 99 -3 0 4 -23 8 -52 8 -28 0 -49 -2 -47 -5z"></path>
    <path d="M537 1004 c-15 -41 -15 -45 -1 -40 9 3 27 9 40 12 27 7 31 29 10 57 -20 27 -30 21 -49 -29z"></path>
    <path d="M2304 975 c4 -35 16 -44 16 -11 0 18 4 25 12 20 7 -4 8 -3 4 4 -13 22 -35 13 -32 -13z"></path>
    <path d="M585 956 c-11 -6 -22 -12 -24 -13 -1 -1 0 -6 3 -12 7 -11 56 6 56 20 0 14 -15 17 -35 5z"></path>
    <path d="M482 923 c-6 -10 -13 -35 -17 -55 -6 -34 -9 -37 -35 -32 -25 5 -28 3 -33 -28 -2 -18 0 -38 5 -45 5 -7 7 -22 3 -33 -4 -12 -4 -36 -1 -54 5 -26 13 -35 44 -45 20 -8 55 -22 77 -31 64 -28 136 -50 167 -50 16 0 27 -4 23 -9 -13 -22 22 -22 96 -1 68 20 85 21 118 11 50 -15 58 -14 65 5 4 10 1 14 -6 11 -7 -2 -30 4 -51 15 -34 17 -44 18 -95 7 -31 -7 -65 -16 -75 -21 -10 -5 -24 -5 -33 0 -21 12 0 29 41 34 l30 4 -27 13 c-25 13 -29 12 -58 -18 -33 -33 -45 -37 -55 -21 -3 6 -15 10 -26 10 -28 0 -175 58 -189 75 -6 8 -12 38 -12 67 -1 46 3 58 30 88 18 19 32 42 32 51 0 9 7 19 15 23 19 7 45 -41 45 -83 0 -25 8 -36 41 -57 22 -14 43 -24 45 -22 2 3 -13 14 -34 26 -35 19 -38 25 -41 69 -4 83 -63 146 -89 96z"></path>
    <path d="M2297 923 c-6 -14 -2 -33 8 -33 6 -1 11 8 13 20 3 19 -13 29 -21 13z"></path>
    <path d="M728 887 c-20 -8 -28 -18 -29 -36 0 -18 -2 -21 -7 -11 -6 14 -9 14 -24 -2 -17 -17 -16 -19 10 -46 24 -24 33 -27 77 -24 46 2 48 2 27 -11 -21 -12 -22 -15 -8 -26 13 -11 16 -11 16 2 0 10 6 13 18 10 12 -3 19 1 19 11 0 9 -4 16 -9 16 -16 0 -8 19 11 25 19 6 19 7 -2 43 -35 61 -50 69 -99 49z m66 -48 c4 -21 10 -28 18 -23 9 6 9 3 -1 -9 -14 -18 -95 -24 -105 -8 -9 15 18 60 39 64 39 8 43 7 49 -24z"></path>
    <path d="M1300 858 c-97 -67 -93 -234 7 -317 124 -102 293 -32 293 122 0 121 -94 217 -213 217 -40 0 -63 -6 -87 -22z m159 -22 c70 -37 118 -126 107 -199 -10 -63 -48 -100 -112 -111 -63 -11 -163 54 -185 121 -25 77 -1 165 53 191 33 15 104 14 137 -2z"></path>
    <path d="M2351 859 c0 -9 -10 -19 -21 -22 -24 -6 -26 -25 -4 -34 22 -8 36 10 31 43 -2 16 -5 22 -6 13z"></path>
    <path d="M2273 795 c-6 -20 -7 -35 -2 -35 5 0 9 5 9 11 0 5 5 7 10 4 7 -4 8 3 4 22 -9 38 -9 38 -21 -2z"></path>
    <path d="M2935 790 c16 -57 16 -78 2 -111 -13 -32 -13 -35 3 -35 10 0 16 6 13 13 -3 7 -1 13 5 13 15 0 6 82 -13 115 -15 26 -16 27 -10 5z"></path>
    <path d="M782 672 c-6 -2 -12 -12 -12 -23 0 -16 4 -17 26 -9 33 13 34 13 34 -5 0 -18 8 -18 37 -2 20 11 19 13 -25 28 -26 8 -53 14 -60 11z"></path>
    <path d="M2774 622 c-12 -32 1 -62 23 -55 10 4 10 9 -1 24 -8 11 -12 29 -9 40 8 29 -1 23 -13 -9z"></path>
    <path d="M1863 545 c-3 -9 -1 -21 4 -26 17 -17 149 -35 211 -29 78 7 124 2 115 -13 -4 -7 0 -6 10 2 9 7 26 11 37 8 11 -3 23 -1 26 4 3 5 20 9 37 8 53 -3 97 11 97 31 0 17 -2 18 -32 2 -24 -11 -70 -17 -163 -20 -238 -8 -247 -8 -293 22 -37 23 -43 24 -49 11z"></path>
  </g>
</svg>
